<svg width="51" height="55" viewBox="0 0 51 55" fill="none" xmlns="http://www.w3.org/2000/svg">
<mask id="mask0_189_552" style="mask-type:alpha" maskUnits="userSpaceOnUse" x="0" y="0" width="51" height="55">
<rect width="50.4483" height="54.7014" fill="#D9D9D9"/>
</mask>
<g mask="url(#mask0_189_552)">
<path d="M42.3555 29.6299H16.8161V25.0714H42.3555L39.0974 21.5386L42.0402 18.2338L50.4483 27.3507L42.0402 36.4676L39.0974 33.1627L42.3555 29.6299ZM31.5302 20.513V11.3961H10.5101V43.3052H31.5302V34.1883H35.7342V43.3052C35.7342 44.5588 35.3226 45.632 34.4993 46.5247C33.676 47.4174 32.6863 47.8637 31.5302 47.8637H10.5101C9.35395 47.8637 8.36425 47.4174 7.54096 46.5247C6.71767 45.632 6.30603 44.5588 6.30603 43.3052V11.3961C6.30603 10.1425 6.71767 9.06939 7.54096 8.17669C8.36425 7.28399 9.35395 6.83765 10.5101 6.83765H31.5302C32.6863 6.83765 33.676 7.28399 34.4993 8.17669C35.3226 9.06939 35.7342 10.1425 35.7342 11.3961V20.513H31.5302Z" fill="black"/>
</g>
</svg>
